Coordinates
version=1
nRows=13
nColumns=36
inDegrees=yes

Units are S.I. units (second, meters, Newtons, ...)
If the header above contains a line with 'inDegrees', this indicates whether rotational values are in degrees (yes) or radians (no).

endheader
time	pelvis_tilt	pelvis_list	pelvis_rotation	pelvis_tx	pelvis_ty	pelvis_tz	hip_flexion_r	hip_adduction_r	hip_rotation_r	knee_angle_r	knee_angle_r_beta	ankle_angle_r	subtalar_angle_r	mtp_angle_r	hip_flexion_l	hip_adduction_l	hip_rotation_l	knee_angle_l	knee_angle_l_beta	ankle_angle_l	subtalar_angle_l	mtp_angle_l	lumbar_extension	lumbar_bending	lumbar_rotation	arm_flex_r	arm_add_r	arm_rot_r	elbow_flex_r	pro_sup_r	arm_flex_l	arm_add_l	arm_rot_l	elbow_flex_l	pro_sup_l
      1.48333330	    -26.39336405	     -0.44308311	      0.48174234	     -1.06592381	      1.27639188	     -0.05247816	     45.64657560	      2.64457385	      2.99726614	     34.95006075	      0.60999363	      8.10145413	    -26.58656005	     -7.49999987	     43.61770859	     -2.58781103	      1.94149942	     30.47483317	      0.53188618	     13.46903409	     -7.98487541	     -7.49999987	    -38.18638002	      0.80241621	     -3.05818082	      3.37185578	     -0.40910057	    -24.03061143	     30.50714679	     97.08819856	     10.92314868	     -7.25918627	     -7.30122371	     26.33824562	     85.01165351
      1.50000000	    -26.27943585	     -0.13525837	      0.11808548	     -1.05900601	      1.27207288	     -0.05721406	     46.66119388	      2.40144742	      3.02079423	     37.52674587	      0.65496527	      9.54493386	    -26.07584928	     -7.49999987	     44.13700079	     -2.54596129	      1.06865539	     32.53231249	      0.56779597	     15.16418722	     -7.43366747	     -7.49999987	    -41.13962771	      0.79394494	     -2.91817642	      5.67096149	     -0.27637283	    -23.73765331	     30.07525711	     96.93086755	     13.64158475	     -6.81703545	     -7.14577623	     26.53877375	     84.86155428
      1.51666670	    -26.80178776	      0.40439673	     -0.50889948	     -1.05874316	      1.26600905	     -0.05612344	     48.70287208	      2.03747624	      3.05419939	     40.40519808	      0.70520374	     11.15718487	    -25.09848029	     -7.49999987	     45.80527589	     -2.52496516	      0.16459820	     35.19449669	      0.61425985	     16.87034783	     -7.53529589	     -7.49999987	    -43.34358378	      0.48027986	     -2.35667481	      8.47203265	     -0.35030495	    -21.79765118	     29.75647287	     95.75240208	     16.93873445	     -6.33658844	     -7.01724471	     26.71095867	     83.26559540
      1.53333330	    -27.10336081	      0.84346198	     -1.08965383	     -1.05716175	      1.26418784	     -0.05515077	     50.25879664	      1.70912015	      3.17588605	     43.05713664	      0.75148880	     12.61505312	    -24.12151525	     -7.49999987	     47.52012439	     -2.49277695	     -0.42867805	     38.35541972	      0.66942836	     18.41055459	     -7.56734270	     -7.49999987	    -45.74974312	      0.19976104	     -1.48078391	     11.66028267	     -0.63033593	    -19.29186601	     30.92640933	     96.19557869	     20.54419649	     -6.06144581	     -7.21569745	     28.01811634	     83.40356987
      1.55000000	    -27.13875156	      1.13282290	     -0.71924560	     -1.05700434	      1.25895682	     -0.05495623	     51.25105648	      1.13353537	      3.21907292	     45.23923034	      0.78957352	     13.56741498	    -24.03077907	     -7.49999987	     48.88526193	     -1.94834247	     -0.26812202	     41.09188375	      0.71718867	     19.46537473	     -7.66979467	     -7.49999987	    -48.32735310	      0.34739656	     -1.08887370	     15.40930113	     -1.25207596	    -15.08496678	     31.54888798	     94.94960169	     24.91060174	     -5.89824208	     -7.31258092	     28.71251643	     82.55709600
      1.56666670	    -27.07434949	      1.44826538	     -0.27321536	     -1.05408293	      1.25211137	     -0.05406011	     52.03954091	      0.61100799	      3.38965870	     47.05534117	      0.82127063	     14.52787019	    -23.84597615	     -7.49999987	     49.93159890	     -1.29872660	      0.20826931	     43.46546478	      0.75861547	     20.23204546	     -8.04666246	     -7.49999987	    -50.61779370	      0.52764046	     -0.44521719	     19.77841155	     -2.34559783	    -10.92174327	     31.54773210	     94.05521459	     29.20297035	     -5.31437610	     -7.64583286	     30.70557176	     82.46912623
      1.58333330	    -28.13921702	      1.80144937	      0.49843276	     -1.05293500	      1.22878485	     -0.05339397	     54.53084114	      0.15908111	      3.77897048	     49.85189011	      0.87007962	     15.75564469	    -24.16839077	     -7.49999987	     52.41313514	     -0.45798463	      0.76418253	     46.23753526	      0.80699723	     21.47157288	     -8.13747012	     -7.49999987	    -50.52355213	      0.58489154	      0.24473236	     22.55997324	     -2.74705401	    -10.47667148	     33.99894394	     93.08621990	     33.16091056	     -5.15709466	     -7.15336172	     33.43294376	     82.06990202
      1.60000000	    -28.24968160	      2.03202302	      1.09551930	     -1.03073759	      1.22710553	     -0.04970240	     55.02358137	      0.08571653	      4.28117232	     51.89432621	      0.90572686	     17.04133780	    -24.79001447	     -7.49999987	     52.49105220	      0.17647088	      1.51794613	     47.53458406	      0.82963500	     22.33074248	     -8.41765856	     -7.49999987	    -50.97086186	      0.77023403	      0.49867715	     26.30094707	     -2.59775835	    -10.20182993	     35.21327992	     92.73094545	     37.74060257	     -5.17208673	     -7.13404447	     34.84876231	     81.83498835
      1.61666670	    -26.46393252	      2.58197223	      1.39516321	     -1.00322428	      1.22879011	     -0.05197159	     52.10499385	      0.01486178	      5.20500427	     52.64528795	      0.91883361	     18.73878451	    -24.75827220	     -7.49999987	     49.21261082	      0.90274423	      1.65925847	     47.66399036	      0.83189357	     23.82796490	     -7.70929158	     -7.49999987	    -53.08732544	      0.66667226	      0.74063852	     30.13424783	     -3.20892982	     -9.67423846	     34.82420604	     93.47353036	     42.26275030	     -4.32052125	     -6.26404407	     33.65344676	     82.25864613
      1.63333330	    -25.78796129	      3.23861431	      1.31551033	     -0.99614025	      1.22188335	     -0.05682084	     50.55900307	     -0.26448937	      6.13329760	     53.28562424	      0.93000959	     20.40227851	    -24.42417678	     -7.49999987	     47.04820299	      1.53056882	      1.21327770	     47.49326597	      0.82891386	     25.28865192	     -7.10318591	     -7.49999987	    -53.22232399	      0.19251031	      0.81762321	     33.18014764	     -3.23498203	     -9.38026687	     37.55176224	     93.61402071	     45.34380104	     -4.09865980	     -7.07480592	     35.65854261	     82.04239725
      1.65000000	    -26.26725572	      3.61132417	      0.86824715	     -1.00189159	      1.21984422	     -0.06048001	     50.88687180	     -0.33114419	      6.89881589	     53.62584306	      0.93594753	     21.18673653	    -24.15945346	     -7.49999987	     47.66687903	      2.21307440	      1.33238907	     49.00216775	      0.85524917	     25.98202104	     -8.39420493	     -7.49999987	    -51.33737263	     -0.17498030	      1.15988224	     38.28878129	     -3.12536466	     -9.10266914	     39.86121311	     93.76562520	     50.06885072	     -4.20981763	     -7.45153055	     37.19482323	     82.03326079
      1.66666670	    -25.90577332	      3.84630040	      0.29541972	     -0.98035857	      1.21180202	     -0.05578031	     50.26466851	     -0.19322386	      7.42537372	     54.73536936	      0.95531241	     23.82523820	    -22.35595311	     -7.49999987	     47.61555370	      2.70996197	      1.93574598	     51.57692112	      0.90018709	     26.81907139	    -10.43103025	     -7.49999987	    -50.17220022	     -0.26089663	      2.34186357	     41.17150291	     -3.96837398	     -8.18480253	     43.12979613	     93.53165985	     53.23964003	     -3.50312562	     -8.32629922	     40.33290116	     81.67833485
      1.68333330	    -26.22146415	      3.50348999	     -0.52245186	     -0.97308205	      1.20333731	     -0.05132699	     50.69161730	      0.92149267	      7.97972085	     56.16035804	      0.98018316	     25.41744416	    -22.02298865	     -7.49999987	     49.02650646	      1.94213119	      1.98110829	     55.02543286	      0.96037498	     28.23546543	    -11.15574835	     -7.49999987	    -47.96087412	     -0.60321692	      2.74957130	     45.00738599	     -3.98915067	     -7.28279481	     47.01797597	     93.97388422	     55.34725861	     -3.84170173	    -11.78252636	     44.99978655	     82.30123373
